<svg width="689" height="110" viewBox="0 0 689 110" fill="none" xmlns="http://www.w3.org/2000/svg">
<path d="M240.56 35.344C241.28 35.776 241.64 36.376 241.64 37.144C241.64 37.576 241.472 38.056 241.136 38.584C240.704 39.112 240.152 39.376 239.48 39.376C239.096 39.376 238.712 39.256 238.328 39.016C234.488 36.472 230.288 35.2 225.728 35.2C221.84 35.2 218.312 36.112 215.144 37.936C212.024 39.76 209.552 42.328 207.728 45.64C205.952 48.904 205.064 52.624 205.064 56.8C205.064 61.072 205.976 64.864 207.8 68.176C209.624 71.44 212.096 73.984 215.216 75.808C218.384 77.584 221.888 78.472 225.728 78.472C230.288 78.472 234.464 77.224 238.256 74.728C238.64 74.488 239.048 74.368 239.48 74.368C240.152 74.368 240.704 74.656 241.136 75.232C241.472 75.616 241.64 76.072 241.64 76.6C241.64 77.368 241.304 77.944 240.632 78.328C238.76 79.576 236.456 80.632 233.72 81.496C230.984 82.312 228.32 82.72 225.728 82.72C221.168 82.72 216.944 81.64 213.056 79.48C209.216 77.272 206.144 74.2 203.84 70.264C201.584 66.328 200.456 61.84 200.456 56.8C200.456 51.952 201.584 47.56 203.84 43.624C206.096 39.64 209.144 36.544 212.984 34.336C216.824 32.08 221.072 30.952 225.728 30.952C228.416 30.952 231.032 31.336 233.576 32.104C236.168 32.872 238.496 33.952 240.56 35.344ZM295.735 56.8C295.735 61.744 294.703 66.184 292.639 70.12C290.575 74.056 287.719 77.152 284.071 79.408C280.423 81.616 276.271 82.72 271.615 82.72C266.959 82.72 262.807 81.616 259.159 79.408C255.511 77.152 252.655 74.056 250.591 70.12C248.527 66.184 247.495 61.744 247.495 56.8C247.495 51.808 248.527 47.344 250.591 43.408C252.655 39.472 255.511 36.4 259.159 34.192C262.807 31.984 266.959 30.88 271.615 30.88C276.271 30.88 280.423 31.984 284.071 34.192C287.719 36.4 290.575 39.472 292.639 43.408C294.703 47.344 295.735 51.808 295.735 56.8ZM291.127 56.8C291.127 52.624 290.287 48.904 288.607 45.64C286.975 42.328 284.671 39.76 281.695 37.936C278.767 36.112 275.407 35.2 271.615 35.2C267.823 35.2 264.439 36.112 261.463 37.936C258.535 39.76 256.231 42.328 254.551 45.64C252.919 48.904 252.103 52.624 252.103 56.8C252.103 60.976 252.919 64.72 254.551 68.032C256.231 71.296 258.535 73.84 261.463 75.664C264.439 77.488 267.823 78.4 271.615 78.4C275.407 78.4 278.767 77.488 281.695 75.664C284.671 73.84 286.975 71.296 288.607 68.032C290.287 64.72 291.127 60.976 291.127 56.8ZM349.852 31.6C350.428 31.6 350.908 31.816 351.292 32.248C351.724 32.632 351.94 33.136 351.94 33.76V79.84C351.94 80.464 351.724 80.992 351.292 81.424C350.86 81.808 350.332 82 349.708 82C349.036 82 348.484 81.808 348.052 81.424C347.62 80.992 347.404 80.464 347.404 79.84V40.24L330.484 65.872C330.004 66.496 329.452 66.784 328.828 66.736H328.684C328.108 66.736 327.58 66.448 327.1 65.872L310.18 40.096V79.84C310.18 80.464 309.964 80.992 309.532 81.424C309.148 81.808 308.644 82 308.02 82C307.396 82 306.892 81.808 306.508 81.424C306.124 80.992 305.932 80.464 305.932 79.84V33.76C305.932 33.184 306.124 32.68 306.508 32.248C306.94 31.816 307.468 31.6 308.092 31.6C308.428 31.6 308.788 31.696 309.172 31.888C309.556 32.032 309.844 32.248 310.036 32.536L328.9 60.832L347.908 32.536C348.436 31.816 349.084 31.504 349.852 31.6ZM384.711 31.6C387.351 31.6 389.727 32.224 391.839 33.472C393.951 34.672 395.583 36.376 396.735 38.584C397.935 40.744 398.535 43.192 398.535 45.928C398.535 48.664 397.935 51.16 396.735 53.416C395.583 55.672 393.951 57.448 391.839 58.744C389.727 60.04 387.351 60.688 384.711 60.688H369.807V79.84C369.807 80.464 369.591 80.992 369.159 81.424C368.775 81.808 368.271 82 367.647 82C367.023 82 366.495 81.808 366.063 81.424C365.679 80.992 365.487 80.464 365.487 79.84V33.76C365.487 33.136 365.679 32.632 366.063 32.248C366.495 31.816 367.023 31.6 367.647 31.6H384.711ZM384.711 56.512C387.495 56.512 389.751 55.504 391.479 53.488C393.207 51.472 394.071 48.952 394.071 45.928C394.071 42.952 393.207 40.528 391.479 38.656C389.751 36.784 387.495 35.848 384.711 35.848H369.807V56.512H384.711ZM453.305 56.8C453.305 61.744 452.273 66.184 450.209 70.12C448.145 74.056 445.289 77.152 441.641 79.408C437.993 81.616 433.841 82.72 429.185 82.72C424.529 82.72 420.377 81.616 416.729 79.408C413.081 77.152 410.225 74.056 408.161 70.12C406.097 66.184 405.065 61.744 405.065 56.8C405.065 51.808 406.097 47.344 408.161 43.408C410.225 39.472 413.081 36.4 416.729 34.192C420.377 31.984 424.529 30.88 429.185 30.88C433.841 30.88 437.993 31.984 441.641 34.192C445.289 36.4 448.145 39.472 450.209 43.408C452.273 47.344 453.305 51.808 453.305 56.8ZM448.697 56.8C448.697 52.624 447.857 48.904 446.177 45.64C444.545 42.328 442.241 39.76 439.265 37.936C436.337 36.112 432.977 35.2 429.185 35.2C425.393 35.2 422.009 36.112 419.033 37.936C416.105 39.76 413.801 42.328 412.121 45.64C410.489 48.904 409.673 52.624 409.673 56.8C409.673 60.976 410.489 64.72 412.121 68.032C413.801 71.296 416.105 73.84 419.033 75.664C422.009 77.488 425.393 78.4 429.185 78.4C432.977 78.4 436.337 77.488 439.265 75.664C442.241 73.84 444.545 71.296 446.177 68.032C447.857 64.72 448.697 60.976 448.697 56.8ZM500.366 31.6C500.99 31.6 501.47 31.792 501.806 32.176C502.19 32.56 502.382 33.04 502.382 33.616V79.696C502.382 80.416 502.166 80.992 501.734 81.424C501.302 81.808 500.774 82 500.15 82C499.814 82 499.478 81.928 499.142 81.784C498.854 81.64 498.614 81.472 498.422 81.28L467.534 39.664V80.056C467.534 80.584 467.318 81.04 466.886 81.424C466.502 81.808 466.046 82 465.518 82C464.942 82 464.462 81.808 464.078 81.424C463.694 81.04 463.502 80.584 463.502 80.056V33.76C463.502 33.088 463.694 32.56 464.078 32.176C464.51 31.792 465.014 31.6 465.59 31.6C466.358 31.6 466.934 31.864 467.318 32.392L498.35 74.224V33.616C498.35 33.04 498.542 32.56 498.926 32.176C499.31 31.792 499.79 31.6 500.366 31.6ZM544.469 77.752C545.093 77.752 545.597 77.968 545.981 78.4C546.413 78.832 546.629 79.336 546.629 79.912C546.629 80.536 546.413 81.04 545.981 81.424C545.597 81.808 545.093 82 544.469 82H518.045C517.421 82 516.893 81.808 516.461 81.424C516.077 80.992 515.885 80.464 515.885 79.84V33.76C515.885 33.136 516.077 32.632 516.461 32.248C516.893 31.816 517.421 31.6 518.045 31.6H544.469C545.093 31.6 545.597 31.816 545.981 32.248C546.413 32.632 546.629 33.136 546.629 33.76C546.629 34.384 546.413 34.888 545.981 35.272C545.597 35.656 545.093 35.848 544.469 35.848H520.421V53.92H541.229C541.853 53.92 542.357 54.136 542.741 54.568C543.173 54.952 543.389 55.456 543.389 56.08C543.389 56.704 543.173 57.208 542.741 57.592C542.357 57.976 541.853 58.168 541.229 58.168H520.421V77.752H544.469ZM593.671 31.6C594.295 31.6 594.775 31.792 595.111 32.176C595.495 32.56 595.687 33.04 595.687 33.616V79.696C595.687 80.416 595.471 80.992 595.039 81.424C594.607 81.808 594.079 82 593.455 82C593.119 82 592.783 81.928 592.447 81.784C592.159 81.64 591.919 81.472 591.727 81.28L560.839 39.664V80.056C560.839 80.584 560.623 81.04 560.191 81.424C559.807 81.808 559.351 82 558.823 82C558.247 82 557.767 81.808 557.383 81.424C556.999 81.04 556.807 80.584 556.807 80.056V33.76C556.807 33.088 556.999 32.56 557.383 32.176C557.815 31.792 558.319 31.6 558.895 31.6C559.663 31.6 560.239 31.864 560.623 32.392L591.655 74.224V33.616C591.655 33.04 591.847 32.56 592.231 32.176C592.615 31.792 593.095 31.6 593.671 31.6ZM641.302 31.6C641.926 31.6 642.43 31.792 642.814 32.176C643.246 32.56 643.462 33.064 643.462 33.688C643.462 34.312 643.246 34.816 642.814 35.2C642.43 35.536 641.926 35.704 641.302 35.704H626.398V79.84C626.398 80.464 626.182 80.992 625.75 81.424C625.318 81.808 624.79 82 624.166 82C623.494 82 622.942 81.808 622.51 81.424C622.126 80.992 621.934 80.464 621.934 79.84V35.704H607.03C606.406 35.704 605.878 35.512 605.446 35.128C605.062 34.744 604.87 34.24 604.87 33.616C604.87 33.04 605.062 32.56 605.446 32.176C605.878 31.792 606.406 31.6 607.03 31.6H641.302ZM666.251 82.72C662.795 82.72 659.723 82.144 657.035 80.992C654.395 79.84 651.827 78.04 649.331 75.592C648.755 75.112 648.467 74.536 648.467 73.864C648.467 73.288 648.683 72.76 649.115 72.28C649.595 71.8 650.123 71.56 650.699 71.56C651.275 71.56 651.803 71.8 652.283 72.28C656.027 76.408 660.707 78.472 666.323 78.472C669.779 78.472 672.635 77.656 674.891 76.024C677.195 74.392 678.347 72.256 678.347 69.616C678.347 67.552 677.771 65.848 676.619 64.504C675.515 63.112 674.051 61.984 672.227 61.12C670.403 60.256 668.075 59.368 665.243 58.456C662.171 57.544 659.579 56.536 657.467 55.432C655.403 54.328 653.723 52.864 652.427 51.04C651.131 49.168 650.483 46.816 650.483 43.984C650.483 41.44 651.155 39.184 652.499 37.216C653.891 35.248 655.811 33.712 658.259 32.608C660.755 31.456 663.611 30.88 666.827 30.88C669.755 30.88 672.491 31.384 675.035 32.392C677.627 33.352 679.691 34.744 681.227 36.568C681.947 37.384 682.307 38.08 682.307 38.656C682.307 39.184 682.067 39.688 681.587 40.168C681.107 40.6 680.579 40.816 680.003 40.816C679.523 40.816 679.115 40.648 678.779 40.312C677.483 38.776 675.755 37.528 673.595 36.568C671.435 35.608 669.179 35.128 666.827 35.128C663.323 35.128 660.467 35.92 658.259 37.504C656.051 39.04 654.947 41.152 654.947 43.84C654.947 46.624 656.003 48.76 658.115 50.248C660.227 51.736 663.251 53.104 667.187 54.352C670.595 55.36 673.379 56.392 675.539 57.448C677.699 58.504 679.451 60.016 680.795 61.984C682.187 63.904 682.883 66.448 682.883 69.616C682.883 72.064 682.163 74.296 680.723 76.312C679.331 78.28 677.363 79.84 674.819 80.992C672.323 82.144 669.467 82.72 666.251 82.72Z" fill="white"/>
<path d="M26.0623 31.6C28.7023 31.6 31.0783 32.224 33.1903 33.472C35.3023 34.672 36.9343 36.376 38.0863 38.584C39.2863 40.744 39.8863 43.192 39.8863 45.928C39.8863 48.664 39.2863 51.16 38.0863 53.416C36.9343 55.672 35.3023 57.448 33.1903 58.744C31.0783 60.04 28.7023 60.688 26.0623 60.688H11.1583V79.84C11.1583 80.464 10.9423 80.992 10.5103 81.424C10.1263 81.808 9.62231 82 8.99831 82C8.37431 82 7.84631 81.808 7.41431 81.424C7.03031 80.992 6.83831 80.464 6.83831 79.84V33.76C6.83831 33.136 7.03031 32.632 7.41431 32.248C7.84631 31.816 8.37431 31.6 8.99831 31.6H26.0623ZM26.0623 56.512C28.8463 56.512 31.1023 55.504 32.8303 53.488C34.5583 51.472 35.4223 48.952 35.4223 45.928C35.4223 42.952 34.5583 40.528 32.8303 38.656C31.1023 36.784 28.8463 35.848 26.0623 35.848H11.1583V56.512H26.0623ZM86.5209 35.344C87.2409 35.776 87.6009 36.376 87.6009 37.144C87.6009 37.576 87.4329 38.056 87.0969 38.584C86.6649 39.112 86.1129 39.376 85.4409 39.376C85.0569 39.376 84.6729 39.256 84.2889 39.016C80.4489 36.472 76.2489 35.2 71.6889 35.2C67.8009 35.2 64.2729 36.112 61.1049 37.936C57.9849 39.76 55.5129 42.328 53.6889 45.64C51.9129 48.904 51.0249 52.624 51.0249 56.8C51.0249 61.072 51.9369 64.864 53.7609 68.176C55.5849 71.44 58.0569 73.984 61.1769 75.808C64.3449 77.584 67.8489 78.472 71.6889 78.472C76.2489 78.472 80.4249 77.224 84.2169 74.728C84.6009 74.488 85.0089 74.368 85.4409 74.368C86.1129 74.368 86.6649 74.656 87.0969 75.232C87.4329 75.616 87.6009 76.072 87.6009 76.6C87.6009 77.368 87.2649 77.944 86.5929 78.328C84.7209 79.576 82.4169 80.632 79.6809 81.496C76.9449 82.312 74.2809 82.72 71.6889 82.72C67.1289 82.72 62.9049 81.64 59.0169 79.48C55.1769 77.272 52.1049 74.2 49.8009 70.264C47.5449 66.328 46.4169 61.84 46.4169 56.8C46.4169 51.952 47.5449 47.56 49.8009 43.624C52.0569 39.64 55.1049 36.544 58.9449 34.336C62.7849 32.08 67.0329 30.952 71.6889 30.952C74.3769 30.952 76.9929 31.336 79.5369 32.104C82.1289 32.872 84.4569 33.952 86.5209 35.344Z" fill="white"/>
<path d="M132.333 22V29.4444V22ZM154.667 22V29.4444V22ZM132.333 81.5556V89V81.5556ZM154.667 81.5556V89V81.5556ZM117.444 44.3333H110H117.444ZM117.444 66.6667H110H117.444ZM177 44.3333H169.556H177ZM177 66.6667H169.556H177ZM124.889 81.5556H162.111C164.086 81.5556 165.979 80.7712 167.375 79.3751C168.771 77.979 169.556 76.0855 169.556 74.1111V36.8889C169.556 34.9145 168.771 33.021 167.375 31.6249C165.979 30.2288 164.086 29.4444 162.111 29.4444H124.889C122.914 29.4444 121.021 30.2288 119.625 31.6249C118.229 33.021 117.444 34.9145 117.444 36.8889V74.1111C117.444 76.0855 118.229 77.979 119.625 79.3751C121.021 80.7712 122.914 81.5556 124.889 81.5556ZM132.333 44.3333H154.667V66.6667H132.333V44.3333Z" stroke="white" stroke-width="4" stroke-linecap="round" stroke-linejoin="round"/>
</svg>
